<?xml version="1.0" encoding="UTF-8" standalone="no"?>
<!-- Created with Inkscape (http://www.inkscape.org/) -->

<svg
   version="1.1"
   id="svg132"
   width="201.5733"
   height="178.72397"
   viewBox="0 0 201.5733 178.72396"
   sodipodi:docname="path1840.svg"
   xmlns:inkscape="http://www.inkscape.org/namespaces/inkscape"
   xmlns:sodipodi="http://sodipodi.sourceforge.net/DTD/sodipodi-0.dtd"
   xmlns="http://www.w3.org/2000/svg"
   xmlns:svg="http://www.w3.org/2000/svg">
  <sodipodi:namedview
     id="namedview151"
     pagecolor="#ffffff"
     bordercolor="#000000"
     borderopacity="0.25"
     inkscape:showpageshadow="2"
     inkscape:pageopacity="0.0"
     inkscape:pagecheckerboard="0"
     inkscape:deskcolor="#d1d1d1"
     showgrid="false" />
  <defs
     id="defs136" />
  <path
     id="path1840"
     style="fill:#1d1d1b;fill-opacity:1;fill-rule:nonzero;stroke:none;stroke-width:1.33333"
     d="M 13.619141,41.775391 5.0214844,101.75977 H 192.97461 l 8.59961,-59.984379 z M 39.240234,55.990234 H 59.8125 l -0.759766,4.859375 h 4.962891 l -0.808594,5.171875 H 53.125 l 0.759766,-4.814453 h -9.832032 l -0.761718,4.814453 H 38.027344 L 35.644531,81.166016 H 50.740234 L 51.5,76.355469 H 41.316406 L 42.130859,71.1875 H 62.34375 l -1.568359,10.083984 h -4.966797 l -0.761719,5.015625 H 29.615234 L 30.375,81.369141 h -4.96875 l 2.431641,-15.25 h 4.970703 l 0.80664,-5.166016 h 4.863282 z m 33.185547,5.0625 H 87.625 l -0.808594,5.015625 h 4.964844 l 0.8125,-5.015625 h 5.166016 l -4,25.234375 h -9.984375 l 0.759765,-4.917968 H 79.574219 L 78.8125,86.287109 H 68.474609 l 0.759766,-4.917968 h -4.962891 l 2.431641,-15.300782 h 4.962891 z m 29.642579,0 h 20.11523 l -0.76171,4.816407 h 4.96289 l 0.75976,-4.816407 h 10.23633 l -0.76172,4.863282 h 5.06836 l -3.24023,20.371093 h -9.98243 l 3.19141,-20.015625 h -4.96289 L 123.5,86.287109 h -10.23438 l 3.19336,-20.015625 h -4.96875 l -3.19335,20.015625 H 98.0625 Z m 49.55078,0 h 20.26563 l -0.81055,4.96875 h 5.0664 l -1.5664,10.128907 h -20.16797 l -0.76172,4.96875 h 15.04883 l -0.80859,5.167968 h -20.21875 l 0.75976,-4.865234 h -4.96094 l 2.43164,-15.400391 h 4.9629 z M 76.833984,66.119141 74.453125,81.21875 h 5.166016 l 0.8125,-5.068359 h 4.814453 l 1.570312,-10.03125 z m 79.193356,0 -0.76172,4.96289 H 165.25 l 0.75977,-4.96289 z" />
  <path
     d="M 99.687967,32.276004 H 79.573301 l 0.806667,-5.068 h 4.917333 l 3.244,-20.1666662 h -4.968 l 0.812,-5.0679998 h 20.114669 l -0.812,5.0679998 H 98.775967 L 95.530634,27.208004 h 4.963996 z"
     style="fill:#1d1d1b;fill-opacity:1;fill-rule:nonzero;stroke:none;stroke-width:1.33333"
     id="path1850" />
  <path
     d="m 134.03597,32.276004 h -9.97867 l 3.19333,-20.114666 h -10.032 l -3.192,20.114666 h -10.23466 l 4,-25.2346662 h 25.18266 l -0.76133,4.7653332 h 5.068 z"
     style="fill:#1d1d1b;fill-opacity:1;fill-rule:nonzero;stroke:none;stroke-width:1.33333"
     id="path1852" />
  <path
     d="m 9.838636,163.90667 1.833333,-13.64134 H 6.4693028 L 7.5306361,143.344 H 2.2399695 L -3.04194e-5,156.84933 4.5626361,156.948 l -1.9173333,12.656 4.1053333,-0.188 -1,8.62533 9.9319999,-0.0307 0.910666,-6.52134 -4.005333,-0.0573 0.886667,-7.48933 z"
     style="fill:#1d1d1b;fill-opacity:1;fill-rule:nonzero;stroke:none;stroke-width:1.33333"
     id="path1854" />
  <path
     d="m 174.9533,164.932 1.62533,-13.31733 4.708,-0.0627 1.02134,-6.92667 h 5.41599 l -2.15066,14.13467 -4.068,0.016 -1.31733,12.26533 -5.08934,-0.016 -1.068,7.69867 -9.728,-0.17733 0.828,-5.86934 4.208,0.19734 0.76534,-8.016 z"
     style="fill:#1d1d1b;fill-opacity:1;fill-rule:nonzero;stroke:none;stroke-width:1.33333"
     id="path1856" />
  <path
     d="m 41.297302,121.87467 0.812,-5.12 h -4.968 l 0.76,-4.96267 h -20.568 l -0.76,4.96267 h -4.865333 l -0.812,5.12 H 5.9319694 l -2.4319999,15.25066 h 4.9639999 l -0.756,4.96267 H 33.141302 l 0.76,-5.11467 h 4.962667 l 0.761333,-5.02 h -10.104 l -0.745333,5.02 h -15.088 l 2.390667,-15.09866 h 5.197333 l 0.792,-4.864 h 9.844 l -0.770667,4.864 z"
     style="fill:#1d1d1b;fill-opacity:1;fill-rule:nonzero;stroke:none;stroke-width:1.33333"
     id="path1858" />
  <path
     d="m 57.770635,131.95333 -0.806667,5.02 h -5.12 l 2.281334,-15 h 9.999999 l -1.584,9.98 z m 13.317333,10.13467 4.005333,-25.22933 h -5.181333 l -0.813333,5.11466 h -4.953334 l 0.813334,-5.11466 H 49.759968 l -0.76,5.11466 h -4.964 L 41.598635,137.172 h 4.969333 l -0.76,4.916 h 10.333334 l 0.759999,-4.916 h 4.962667 l -0.78,4.916 z"
     style="fill:#1d1d1b;fill-opacity:1;fill-rule:nonzero;stroke:none;stroke-width:1.33333"
     id="path1860" />
  <path
     d="m 145.79197,126.89067 h -9.96934 l 0.72934,-4.91734 h 10.00533 z m 6.61466,-10.036 H 132.1413 l -0.76133,5.11866 h -4.96267 l -2.43333,15.30267 h 4.964 l -0.76,4.812 h 20.21866 l 0.80667,-5.12 h -15.02533 l 0.79066,-4.96267 h 20.11467 l 1.568,-10.032 h -5.068 z"
     style="fill:#1d1d1b;fill-opacity:1;fill-rule:nonzero;stroke:none;stroke-width:1.33333"
     id="path1862" />
  <path
     d="m 170.1933,121.97333 h 10.00933 l -0.77066,4.91734 h -9.968 z m 18.54133,10.032 1.568,-10.032 h -5.06267 l 0.812,-5.11866 H 165.7813 l -0.76,5.11866 h -4.964 l -2.432,15.30267 h 4.96267 l -0.75467,4.812 h 20.21333 l 0.808,-5.12 H 167.8333 l 0.78667,-4.96267 z"
     style="fill:#1d1d1b;fill-opacity:1;fill-rule:nonzero;stroke:none;stroke-width:1.33333"
     id="path1864" />
  <path
     d="m 112.61463,150.92667 4.33334,-23.98934 h 4.85466 l 0.776,-5.11466 h -4.81866 l 0.80266,-5.068 h 4.82267 l 0.85467,-4.96267 h -10.22934 l -0.80266,5.06267 h -4.968 l -0.76134,4.968 h -4.97333 l -0.812,5.11466 h 4.96267 l -3.68667,23.88534 -13.843999,-0.104 3.910666,-23.78134 h 4.854667 l 0.770666,-5.11466 h -4.811999 l 0.801333,-5.068 h 4.824 L 100.32263,111.792 H 90.098634 l -0.801333,5.06267 h -4.974667 l -0.76,4.968 h -4.974666 l -0.812,5.11466 h 4.969333 l -3.792,23.46934 -59.661332,0.20266 -1.598667,10.964 2.869334,0.0413 -0.641334,7.06266 2.938667,0.0933 -1.089333,8.964 137.822664,0.812 1.17733,-8.87467 3.204,0.0573 0.88534,-7.948 2.952,0.0107 1.34933,-10.48533 z"
     style="fill:#1d1d1b;fill-opacity:1;fill-rule:nonzero;stroke:none;stroke-width:1.33333"
     id="path1866" />
  <path
     d="m 55.817302,5.8333379 -5.348,-0.052 1.145333,-4.6413332 10.021333,0.1613333 -1.094667,4.6666665 5.046667,0.188 -1.129333,4.7239995 4.953333,0.05733 -1.188,4.688 4.453333,0.114666 -1.292,5.208 -4.24,-0.068 -1.410666,4.104 -5.125334,-0.06267 -1.412,4.6 -5.009333,-0.06267 -1.365333,4.697333 -9.344,-0.09867 1.125333,-4.765333 5.041334,0.03067 1.234666,-4.562667 5.161334,0.016 1.411999,-4.516 4.822667,0.084 1.333333,-4.833333 -5.016,-0.09467 1.209334,-4.666666 -5.109333,-0.134667 z"
     style="fill:#1d1d1b;fill-opacity:1;fill-rule:nonzero;stroke:none;stroke-width:1.33333"
     id="path1868" />
  <path
     d="m 163.2293,28.322671 5.34933,0.052 -1.14666,4.646666 -10.01467,-0.166666 1.09333,-4.666667 -5.04666,-0.188 1.12933,-4.724 -4.952,-0.05733 1.18667,-4.688 -4.45867,-0.114667 1.29733,-5.208 4.23467,0.068 1.416,-4.1039995 5.12533,0.062667 1.412,-4.5999999 5.00934,0.062667 1.36533,-4.6973332099 9.344,0.0986666599 -1.12533,4.76533325 -5.04667,-0.030667 -1.22933,4.5626666 -5.16134,-0.016 -1.412,4.5159991 -4.82266,-0.084 -1.33334,4.833334 5.016,0.09867 -1.208,4.662667 5.10934,0.134666 z"
     style="fill:#1d1d1b;fill-opacity:1;fill-rule:nonzero;stroke:none;stroke-width:1.33333"
     id="path1870" />
</svg>
